# xmcd
#
# Track frame offsets:
# 150
# 11832
# 22245
# 33200
# 44812
# 57087
# 68400
# 77800
# 86330
# 97482
# 107052
# 115945
# 126580
# 138747
#
# Disc length: 1996 seconds
#
#
# Revision: 2
# Processed by: cddbd v1.5.1PL2 Copyright (c) Steve Scherf et al.
# Submitted via: FreeRIP 2.945 
#
DISCID=ca07ca0e
DTITLE=Faron Young - Absolutely The Best
DYEAR=2003
DGENRE=Country
TTITLE0=Country Girl
TTITLE1=Live Fast,Love Hard, Die Young
TTITLE2=Hello Walls
TTITLE3=Your Old Used To Be
TTITLE4=Sweet Dreams
TTITLE5=I Miss You Already
TTITLE6=It's A Great Life
TTITLE7=That's The Way I Feel
TTITLE8=All Right
TTITLE9=I've Got Five Dollars
TTITLE10=Alone With You
TTITLE11=If You Ain't Lovin
TTITLE12=Goin Steady
TTITLE13=Three Days
EXTD=EMI Music
EXTT0=
EXTT1=
EXTT2=
EXTT3=
EXTT4=
EXTT5=
EXTT6=
EXTT7=
EXTT8=
EXTT9=
EXTT10=
EXTT11=
EXTT12=
EXTT13=
PLAYORDER=
